<?xml version="1.0" encoding="UTF-8"?>
<svg version="1.1" xmlns="http://www.w3.org/2000/svg" width="512" height="512">
<path d="M0 0 C2.80790182 1.93107116 2.80790182 1.93107116 6.0234375 1.60546875 C9.01842459 0.63139063 10.78754223 -0.43784382 13.23046875 -2.3984375 C34.94466725 -18.2439337 62.94212499 -22.84395963 89.14453125 -19.03515625 C94.86162492 -17.97577761 100.57585519 -16.6705159 105.91796875 -14.3359375 C108.20810528 -10.9007327 108.09639848 -9.3506065 107.91796875 -5.3359375 C108.57023437 -5.15417969 109.2225 -4.97242188 109.89453125 -4.78515625 C113.9414101 -3.62123092 117.56705509 -2.52439113 121.29296875 -0.5234375 C122.15921875 -0.1315625 123.02546875 0.2603125 123.91796875 0.6640625 C125.93419205 -0.05157016 125.93419205 -0.05157016 127.91796875 -1.3359375 C133.63157681 -2.74161096 136.97840114 -1.92335593 141.91796875 0.9765625 C142.88355713 1.51917725 142.88355713 1.51917725 143.86865234 2.07275391 C186.4219143 26.41400528 186.4219143 26.41400528 192.38671875 41.4453125 C195.36176714 53.87051459 190.68620226 64.40482245 185.91796875 75.6640625 C185.57556152 76.48358398 185.2331543 77.30310547 184.88037109 78.14746094 C173.59703072 104.91308463 158.73806647 130.00235974 138.9921875 151.40234375 C137.11675289 153.44730917 135.32764342 155.54025725 133.54296875 157.6640625 C105.9511958 189.08977201 63.38132021 208.65559971 21.91796875 211.6640625 C-1.88661078 212.60569679 -24.78241381 211.52324566 -47.89453125 205.2265625 C-48.57660645 205.04585205 -49.25868164 204.8651416 -49.96142578 204.67895508 C-54.41458048 203.32782354 -56.66789373 201.63306825 -59.08203125 197.6640625 C-59.1696875 196.8184375 -59.25734375 195.9728125 -59.34765625 195.1015625 C-59.8295628 192.62125696 -59.8295628 192.62125696 -61.56835938 191.56640625 C-63.61885368 190.47805105 -65.68980312 189.55791473 -67.83203125 188.6640625 C-68.54875 188.32761719 -69.26546875 187.99117187 -70.00390625 187.64453125 C-72.05250795 186.75956544 -73.8823413 186.04563846 -76.08203125 185.6640625 C-78.90648826 186.87437879 -78.90648826 186.87437879 -81.08203125 188.6640625 C-99.62648291 186.77177151 -122.52706092 161.12358993 -133.8046875 147.41015625 C-136.63682464 143.8828355 -139.37444875 140.28753121 -142.08203125 136.6640625 C-142.51547852 136.0860791 -142.94892578 135.5080957 -143.39550781 134.91259766 C-159.93751799 112.70817839 -172.57163447 88.07214185 -181.58203125 61.9140625 C-181.96524536 60.82460327 -181.96524536 60.82460327 -182.35620117 59.71313477 C-184.54717645 53.10170321 -184.89253369 47.17920011 -182.16015625 40.68359375 C-174.79939506 26.89550122 -158.06325076 16.62516632 -145.08203125 8.6640625 C-144.31004395 8.1896875 -143.53805664 7.7153125 -142.74267578 7.2265625 C-98.66084428 -19.55203872 -44.73528938 -33.90583403 0 0 Z " fill="#DB568E" transform="translate(319.08203125,190.3359375)"/>
<path d="M0 0 C0.90218262 0.19803223 1.80436523 0.39606445 2.73388672 0.60009766 C5.37125207 1.18623124 7.99852252 1.80453397 10.625 2.4375 C11.3780542 2.60652832 12.1311084 2.77555664 12.90698242 2.94970703 C18.37638376 4.35134681 22.12833576 6.88679944 26 11 C27.5547669 14.10953379 27.28644437 16.56266761 27 20 C22.77415114 28.26796515 15.1640771 35.25968072 8.12890625 41.1796875 C5.70090762 43.25573771 3.39224363 45.439328 1.0625 47.625 C-41.50956461 86.32687692 -94.43700312 110.4574166 -152.3515625 107.89599609 C-191.2129651 105.35633694 -230.12997578 83.74045514 -260 60 C-261.01707031 59.195625 -262.03414062 58.39125 -263.08203125 57.5625 C-268.43423781 53.25079234 -273.58563121 48.74705072 -278.6640625 44.1171875 C-280.76918748 42.20919797 -282.90613634 40.34952931 -285.0625 38.5 C-300.36292796 25.09657632 -300.36292796 25.09657632 -301.4375 16.5 C-300.9043675 12.23494 -299.80168958 10.24406162 -297 7 C-291.32343931 3.41925559 -284.84889898 2.43241122 -278.375 1.0625 C-277.17311035 0.80235107 -275.9712207 0.54220215 -274.73291016 0.27416992 C-264.51130793 -1.92530348 -254.27771981 -4.07770596 -244 -6 C-242.81438477 -6.226875 -241.62876953 -6.45375 -240.40722656 -6.6875 C-229.60632667 -8.70756206 -218.77121928 -10.09609753 -207.85253906 -11.30761719 C-205.00236085 -11.62473732 -202.15353631 -11.95242376 -199.3046875 -12.28125 C-133.08577299 -19.82053051 -64.90859576 -14.79380705 0 0 Z " fill="#020102" transform="translate(461,232)"/>
<path d="M0 0 C2.80790182 1.93107116 2.80790182 1.93107116 6.0234375 1.60546875 C9.01842459 0.63139063 10.78754223 -0.43784382 13.23046875 -2.3984375 C34.94466725 -18.2439337 62.94212499 -22.84395963 89.14453125 -19.03515625 C94.86162492 -17.97577761 100.57585519 -16.6705159 105.91796875 -14.3359375 C108.26346549 -10.81769239 108.49788278 -9.47818056 107.91796875 -5.3359375 C106.04296875 -2.3984375 106.04296875 -2.3984375 102.91796875 -0.3359375 C98.19775963 -0.01208096 93.85360675 -1.0652562 89.33984375 -2.37109375 C68.00661733 -7.7638331 44.57013227 -2.05363126 25.91796875 8.6640625 C24.07174046 9.88704481 22.26742769 11.15731773 20.46264648 12.44042969 C14.14543315 16.9029911 9.07333832 18.91972808 1.15234375 18.34765625 C-4.11604607 17.23416806 -7.73772725 14.72834836 -12.08203125 11.6640625 C-33.81056424 -1.46359285 -56.22751883 -7.01538049 -81.640625 -2.27734375 C-108.66502583 5.11525625 -133.40980689 19.0171682 -155.29150391 36.26074219 C-156.44071406 37.16143212 -157.59863487 38.0511784 -158.76708984 38.92675781 C-160.24916609 40.03842975 -161.69823727 41.19372045 -163.14453125 42.3515625 C-163.93988281 42.97417969 -164.73523438 43.59679687 -165.5546875 44.23828125 C-167.60050466 47.48752026 -167.26797326 49.47300427 -166.66235352 53.1862793 C-165.64819525 57.51639802 -164.15599341 61.5969021 -162.51953125 65.7265625 C-162.16165527 66.6441333 -161.8037793 67.5617041 -161.43505859 68.50708008 C-158.12802019 76.82972096 -154.30941504 84.7765232 -150.08203125 92.6640625 C-149.52177246 93.73237305 -149.52177246 93.73237305 -148.95019531 94.82226562 C-134.69189405 121.96171332 -115.31900217 147.16413104 -90.45703125 165.3515625 C-89.81282227 165.82456787 -89.16861328 166.29757324 -88.50488281 166.78491211 C-85.81510031 168.74347482 -83.14023989 170.62807152 -80.30859375 172.37890625 C-78.22785456 173.69670774 -76.60338009 174.7291431 -75.08203125 176.6640625 C-74.45397534 179.98872544 -74.81851961 182.53885495 -76.08203125 185.6640625 C-78.20703125 187.8515625 -78.20703125 187.8515625 -81.08203125 188.6640625 C-99.62648291 186.77177151 -122.52706092 161.12358993 -133.8046875 147.41015625 C-136.63682464 143.8828355 -139.37444875 140.28753121 -142.08203125 136.6640625 C-142.51547852 136.0860791 -142.94892578 135.5080957 -143.39550781 134.91259766 C-159.93751799 112.70817839 -172.57163447 88.07214185 -181.58203125 61.9140625 C-181.96524536 60.82460327 -181.96524536 60.82460327 -182.35620117 59.71313477 C-184.54717645 53.10170321 -184.89253369 47.17920011 -182.16015625 40.68359375 C-174.79939506 26.89550122 -158.06325076 16.62516632 -145.08203125 8.6640625 C-144.31004395 8.1896875 -143.53805664 7.7153125 -142.74267578 7.2265625 C-98.66084428 -19.55203872 -44.73528938 -33.90583403 0 0 Z " fill="#010001" transform="translate(319.08203125,190.3359375)"/>
<path d="M0 0 C1.25707764 0.27714844 2.51415527 0.55429688 3.80932617 0.83984375 C6.65542789 1.47397653 9.49922677 2.11765459 12.34204102 2.76635742 C41.02053012 9.30840514 69.85334004 14.10635449 99 18 C99.82137451 18.11561279 100.64274902 18.23122559 101.48901367 18.3503418 C108.60532221 19.26918988 115.77146468 19.28611709 122.9375 19.3125 C123.64687714 19.31545074 124.35625427 19.31840149 125.08712769 19.32144165 C136.50753199 19.33208538 147.72828898 18.56501629 159.0625 17.1875 C159.74972137 17.10472809 160.43694275 17.02195618 161.14498901 16.93667603 C170.48681554 15.78804136 179.71826667 14.1993034 188.95187378 12.39663696 C191.73465192 11.85772844 194.52129721 11.34040185 197.30796814 10.82206726 C200.95720292 10.14127997 204.60373643 9.4465006 208.25 8.75 C209.02059753 8.60336914 209.79119507 8.45673828 210.58514404 8.30566406 C222.52663883 6.02085704 234.28980131 3.36111601 245.99316406 0.04589844 C254.91099998 -2.36826164 262.31448549 -2.42849257 271 1 C262.93797167 10.75929746 253.95849631 19.20613844 244 27 C243.06559082 27.7410498 243.06559082 27.7410498 242.11230469 28.49707031 C234.38103241 34.61874759 226.54002936 40.52594118 218.25 45.875 C217.59491455 46.30997803 216.9398291 46.74495605 216.26489258 47.19311523 C213.51131166 48.91800395 211.59406175 50.01547484 208.30078125 49.9296875 C205.87052897 48.94768403 204.03532864 47.8183189 201.9375 46.25 C187.54551081 36.24551841 169.68953989 34.61914516 152.64111328 37.38232422 C144.39763716 39.38468277 134.05901858 44.1632692 128.51171875 50.7734375 C127 52 127 52 124.59765625 51.890625 C121.70722517 50.89962006 119.84481093 49.6237107 117.4375 47.75 C103.8079746 37.89635793 87.21740798 34.1535635 70.64453125 36.46875 C59.14506402 38.77688679 49.47265956 44.2543182 40 51 C23.3123236 40.50824306 7.72050184 29.1186383 -7 16 C-7.61133789 15.45714355 -8.22267578 14.91428711 -8.85253906 14.35498047 C-10.68063443 12.72455565 -12.49865565 11.08375407 -14.3125 9.4375 C-14.87026123 8.93669922 -15.42802246 8.43589844 -16.00268555 7.91992188 C-18.48751701 5.63455094 -19.91402268 4.25793197 -21 1 C-19.57541606 0.4252221 -18.1339182 -0.10761869 -16.6875 -0.625 C-15.88699219 -0.92664063 -15.08648437 -1.22828125 -14.26171875 -1.5390625 C-9.27598241 -2.24363362 -4.88134029 -1.08064892 0 0 Z " fill="#325893" transform="translate(199,249)"/>
<path d="M0 0 C4.10703441 0.85563217 5.55401113 2.24378009 8 5.625 C8.31123651 10.40324869 7.7446194 14.66762353 6.72265625 19.328125 C6.32336914 21.16890625 6.32336914 21.16890625 5.91601562 23.046875 C5.63435547 24.31015625 5.35269531 25.5734375 5.0625 26.875 C4.64581055 28.793125 4.64581055 28.793125 4.22070312 30.75 C2.17254704 40.10735887 2.17254704 40.10735887 1 43.625 C5.62 43.295 10.24 42.965 15 42.625 C15.21615967 41.49481445 15.43231934 40.36462891 15.6550293 39.20019531 C16.46408315 34.99910053 17.29968215 30.80365141 18.14331055 26.609375 C18.50439438 24.7950462 18.85831001 22.97927521 19.20483398 21.16210938 C19.70489347 18.54663375 20.23070668 15.93746927 20.76171875 13.328125 C20.98549446 12.11228729 20.98549446 12.11228729 21.21379089 10.87188721 C22.03741037 6.95200561 22.58916601 5.04726312 25.44848633 2.10839844 C28.61549223 0.26716527 30.39050125 0.08741508 34 0.625 C36.3125 1.625 36.3125 1.625 38 3.625 C39.07693107 9.26271713 38.91079364 13.81160025 37.56640625 19.40625 C37.40961899 20.10520386 37.25283173 20.80415771 37.09129333 21.52429199 C36.59409271 23.72757138 36.07868186 25.92609907 35.5625 28.125 C35.21948336 29.62993083 34.8776752 31.13513765 34.53710938 32.640625 C33.70532812 36.30541884 32.8572035 39.96607279 32 43.625 C33.18078125 43.57859375 34.3615625 43.5321875 35.578125 43.484375 C37.13539134 43.44685051 38.69268508 43.41045107 40.25 43.375 C41.41595703 43.32472656 41.41595703 43.32472656 42.60546875 43.2734375 C48.36890565 43.17491721 48.36890565 43.17491721 51.51953125 45.421875 C53.67049998 48.62278889 53.47122959 50.85516328 53 54.625 C51.23984869 57.8100357 50.50109084 58.45796972 47 59.625 C45.51876453 59.7056622 44.03417796 59.73261193 42.55078125 59.72265625 C41.70322266 59.71943359 40.85566406 59.71621094 39.98242188 59.71289062 C39.10134766 59.70451172 38.22027344 59.69613281 37.3125 59.6875 C35.97348633 59.68073242 35.97348633 59.68073242 34.60742188 59.67382812 C32.40488013 59.66204983 30.20247401 59.64560164 28 59.625 C27.87753906 60.89214844 27.75507812 62.15929687 27.62890625 63.46484375 C27.03894349 68.77450858 26.02288437 73.96001276 24.9375 79.1875 C24.75123047 80.10080078 24.56496094 81.01410156 24.37304688 81.95507812 C23.91891897 84.17914045 23.461187 86.40239276 23 88.625 C24.09699219 88.56699219 25.19398437 88.50898438 26.32421875 88.44921875 C27.77860314 88.40230312 29.23303374 88.35680489 30.6875 88.3125 C31.40873047 88.27060547 32.12996094 88.22871094 32.87304688 88.18554688 C37.06078338 88.08993645 38.55209907 88.27454541 41.98046875 90.95703125 C44 93.625 44 93.625 44.625 96.625 C43.75442607 100.80375488 42.41391384 102.06134395 39 104.625 C35.54035265 105.23191677 32.18624981 105.09821996 28.6875 104.9375 C27.75615234 104.91494141 26.82480469 104.89238281 25.86523438 104.86914062 C23.5751604 104.81042078 21.28842125 104.72836858 19 104.625 C18.88390381 105.34768066 18.76780762 106.07036133 18.64819336 106.81494141 C17.43525843 114.24304809 16.07175462 121.62661365 14.5625 129 C14.35818359 130.04027344 14.15386719 131.08054687 13.94335938 132.15234375 C12.87646609 137.35718762 11.86268985 142.05996392 9 146.625 C5.94306678 148.15346661 3.37015453 147.85742445 0 147.625 C-2.375 146.4375 -2.375 146.4375 -4 144.625 C-5.46819218 140.12603599 -4.55724275 136.19336663 -3.56640625 131.69921875 C-3.40961899 130.95162796 -3.25283173 130.20403717 -3.09129333 129.43379211 C-2.59084062 127.05798124 -2.07688933 124.6853282 -1.5625 122.3125 C-1.21980689 120.69745553 -0.87800007 119.08222274 -0.53710938 117.46679688 C0.29834378 113.51727613 1.14591087 109.57053078 2 105.625 C-4.93 105.13 -4.93 105.13 -12 104.625 C-12.10570312 105.81609375 -12.21140625 107.0071875 -12.3203125 108.234375 C-13.06052702 114.86773599 -14.4823446 121.35329668 -15.875 127.875 C-16.13152344 129.12796875 -16.38804688 130.3809375 -16.65234375 131.671875 C-16.90886719 132.8784375 -17.16539063 134.085 -17.4296875 135.328125 C-17.65897949 136.41770508 -17.88827148 137.50728516 -18.12451172 138.62988281 C-19.11966824 142.03439486 -20.45752874 145.08252874 -23 147.625 C-30.00187149 148.19892389 -30.00187149 148.19892389 -33.5 146.1875 C-37.82890496 138.79228736 -33.81008309 127.94964822 -32.0625 120.1875 C-31.78470703 118.90939453 -31.50691406 117.63128906 -31.22070312 116.31445312 C-29.16021168 106.94542337 -29.16021168 106.94542337 -28 104.625 C-29.66289063 104.65980469 -29.66289063 104.65980469 -31.359375 104.6953125 C-32.82290992 104.71407577 -34.28645214 104.73227537 -35.75 104.75 C-36.84441406 104.77513672 -36.84441406 104.77513672 -37.9609375 104.80078125 C-45.04963964 104.865224 -45.04963964 104.865224 -48 102.625 C-49.83066825 98.48609787 -50.33931409 96.54114805 -48.75 92.25 C-47 89.625 -47 89.625 -45 88.625 C-43.47851674 88.54127341 -41.95344222 88.51769973 -40.4296875 88.52734375 C-39.53378906 88.53056641 -38.63789062 88.53378906 -37.71484375 88.53710938 C-36.30912109 88.54967773 -36.30912109 88.54967773 -34.875 88.5625 C-33.93011719 88.56701172 -32.98523438 88.57152344 -32.01171875 88.57617188 C-29.67441613 88.58797643 -27.33723939 88.60444241 -25 88.625 C-24.78065796 87.46713989 -24.78065796 87.46713989 -24.55688477 86.28588867 C-23.89422068 82.79435076 -23.2283985 79.30342243 -22.5625 75.8125 C-22.33240234 74.59755859 -22.10230469 73.38261719 -21.86523438 72.13085938 C-21.64287109 70.96748047 -21.42050781 69.80410156 -21.19140625 68.60546875 C-20.88505249 66.99514771 -20.88505249 66.99514771 -20.57250977 65.35229492 C-20 62.625 -20 62.625 -19 59.625 C-20.53720703 59.67720703 -20.53720703 59.67720703 -22.10546875 59.73046875 C-23.46612936 59.75862035 -24.8268078 59.78591904 -26.1875 59.8125 C-27.19780273 59.85020508 -27.19780273 59.85020508 -28.22851562 59.88867188 C-32.69751197 59.95407182 -35.45618488 59.38130065 -39 56.625 C-40.54586876 53.53326248 -40.29359521 51.03070448 -40 47.625 C-38.65234375 45.4140625 -38.65234375 45.4140625 -36 43.625 C-32.40521809 43.13072226 -28.86973869 43.24968282 -25.25 43.375 C-24.26644531 43.39304687 -23.28289063 43.41109375 -22.26953125 43.4296875 C-19.84536217 43.47675874 -17.42317941 43.54249258 -15 43.625 C-14.9597168 43.06917236 -14.91943359 42.51334473 -14.87792969 41.94067383 C-14.22583742 34.27858969 -12.81225754 26.83579576 -11.25 19.3125 C-11.01023438 18.06404297 -10.77046875 16.81558594 -10.5234375 15.52929688 C-7.62307917 1.58814149 -7.62307917 1.58814149 0 0 Z M-2 59.625 C-3.39173172 63.1043293 -4.3576897 65.78125324 -5.0703125 69.34765625 C-5.24433594 70.21583984 -5.41835938 71.08402344 -5.59765625 71.97851562 C-5.77167969 72.87248047 -5.94570313 73.76644531 -6.125 74.6875 C-6.30675781 75.58533203 -6.48851562 76.48316406 -6.67578125 77.40820312 C-7.44038431 81.27433516 -8 84.6593618 -8 88.625 C-3.38 88.625 1.24 88.625 6 88.625 C6.81602516 85.1049505 7.62792637 81.58403376 8.4375 78.0625 C8.66759766 77.07185547 8.89769531 76.08121094 9.13476562 75.06054688 C10.3118469 69.92574303 11.36181047 64.85521994 12 59.625 C7.38 59.625 2.76 59.625 -2 59.625 Z " fill="#000000" transform="translate(59,353.375)"/>
<path d="M0 0 C4.66794523 1.09834005 8.28442766 2.96188665 12.4140625 5.34375 C13.59162109 6.01156494 13.59162109 6.01156494 14.79296875 6.69287109 C25.86312386 13.083819 36.05894855 20.70292913 45.8515625 28.90625 C46.74101562 29.63714844 47.63046875 30.36804688 48.546875 31.12109375 C54.71655024 36.38240573 58.91528319 40.51297164 60.32421875 48.62890625 C61.0599892 59.21062308 56.89117295 68.36750913 52.8515625 77.90625 C52.50915527 78.72577148 52.16674805 79.54529297 51.81396484 80.38964844 C40.53062447 107.15527213 25.67166022 132.24454724 5.92578125 153.64453125 C4.05034664 155.68949667 2.26123717 157.78244475 0.4765625 159.90625 C-27.11521045 191.33195951 -69.68508604 210.89778721 -111.1484375 213.90625 C-134.95301703 214.84788429 -157.84882006 213.76543316 -180.9609375 207.46875 C-181.6430127 207.28803955 -182.32508789 207.1073291 -183.02783203 206.92114258 C-187.47117926 205.57298672 -189.66808914 203.81004952 -192.1484375 199.90625 C-192.7109375 197.40625 -192.7109375 197.40625 -192.1484375 194.90625 C-190.2109375 192.03125 -190.2109375 192.03125 -187.1484375 189.90625 C-180.85410468 189.66305624 -174.48190508 191.7236928 -168.4609375 193.34375 C-128.26782361 203.60215136 -83.99747663 198.01860001 -47.765625 177.4921875 C-4.95904011 152.07609479 23.21639468 109.98526669 40.4765625 64.09375 C40.83202148 63.16828369 41.18748047 62.24281738 41.55371094 61.28930664 C43.96815173 54.70198133 43.96815173 54.70198133 42.8515625 47.90625 C32.67282025 34.98430062 14.74333443 25.46948455 0.58081055 17.77612305 C-0.26827881 17.31117432 -1.11736816 16.84622559 -1.9921875 16.3671875 C-2.74693359 15.96290527 -3.50167969 15.55862305 -4.27929688 15.14208984 C-6.1484375 13.90625 -6.1484375 13.90625 -8.1484375 10.90625 C-8.76547289 6.85144599 -8.46881851 5.36255023 -6.0859375 1.96875 C-3.1484375 -0.09375 -3.1484375 -0.09375 0 0 Z " fill="#010000" transform="translate(452.1484375,188.09375)"/>
<path d="M0 0 C4.78642607 0.5746621 8.53788787 1.98245643 12.875 4.0625 C14.02742187 4.61035156 15.17984375 5.15820312 16.3671875 5.72265625 C17.23601562 6.14417969 18.10484375 6.56570312 19 7 C18.9175 8.0725 18.835 9.145 18.75 10.25 C18.67397609 13.91833987 18.67397609 13.91833987 20.48046875 16.15234375 C23.91169074 18.66857321 27.54768752 20.59324391 31.3125 22.5625 C44.66554686 29.77748535 62.41980734 40.12971102 71 53 C70.72266058 59.42923208 68.3256077 65.22025816 66.0625 71.1875 C65.66208496 72.24469238 65.26166992 73.30188477 64.84912109 74.39111328 C46.88936293 120.79121744 13.75524704 165.19353669 -32 187 C-60.11575596 199.32792949 -87.45874825 202.68794549 -118 202 C-118 201.67 -118 201.34 -118 201 C-117.29617188 201.00112793 -116.59234375 201.00225586 -115.8671875 201.00341797 C-101.43875587 200.94926426 -88.98949879 200.53182373 -76 194 C-75.32743164 193.67999023 -74.65486328 193.35998047 -73.96191406 193.03027344 C-59.01443622 185.89892237 -45.34353671 176.62747183 -33.3359375 165.21484375 C-31.30602127 163.29015729 -29.22544547 161.52008395 -27.0625 159.75 C-16.44256206 150.47380931 -8.0570446 138.47926755 0 127 C0.763125 125.9275 1.52625 124.855 2.3125 123.75 C4.26150811 121.11158486 4.26150811 121.11158486 4 118 C5.35424805 116.73242188 5.35424805 116.73242188 7.26171875 115.46875 C7.96224365 114.99348877 8.66276855 114.51822754 9.38452148 114.02856445 C10.52449585 113.27192505 10.52449585 113.27192505 11.6875 112.5 C22.39762099 105.17331629 32.00594531 96.92597915 41.58984375 88.18359375 C43.25231953 86.67739608 44.93332597 85.19148731 46.62890625 83.72265625 C56.55802646 75.32569274 56.55802646 75.32569274 61.375 63.75 C61.00474624 60.04746242 60.43342621 58.05542808 57.8515625 55.34375 C52.69996296 51.60503641 46.11510356 50.35627099 39.953125 49.23046875 C39.27556152 49.10631592 38.59799805 48.98216309 37.89990234 48.85424805 C35.95556867 48.51409515 34.00513498 48.20938703 32.0546875 47.90625 C29 47 29 47 27.890625 45.19140625 C27.59671875 44.46824219 27.3028125 43.74507812 27 43 C11.37538003 27.83492768 -8.85543011 16.0146209 -28.5 6.9375 C-29.31243164 6.55513184 -30.12486328 6.17276367 -30.96191406 5.77880859 C-36.37872818 3.35912061 -41.07647381 2.3850292 -47 2 C-47 1.67 -47 1.34 -47 1 C-43.08348097 0.91140125 -39.16722626 0.85908083 -35.25 0.8125 C-33.61224609 0.77479492 -33.61224609 0.77479492 -31.94140625 0.73632812 C-25.14757072 0.67602781 -19.26200687 1.39970429 -12.74511719 3.3503418 C-8.52765656 4.34844414 -5.11271458 4.37090486 -1 3 C-0.67 2.01 -0.34 1.02 0 0 Z " fill="#D7377B" transform="translate(426,185)"/>
<path d="M0 0 C4.00356973 3.45834534 5.95195843 6.5077243 7.77978516 11.44140625 C8.0164389 12.06855026 8.25309265 12.69569427 8.49691772 13.34184265 C9.2739906 15.41079208 10.03145564 17.48635212 10.7890625 19.5625 C11.33727102 21.03333282 11.88672489 22.503702 12.43734741 23.97363281 C13.88857458 27.85759373 15.32345251 31.74739492 16.75476074 35.63873291 C18.17237745 39.48522874 19.60395694 43.3265104 21.03515625 47.16796875 C22.72351098 51.69972728 24.40919362 56.23236066 26.07965088 60.77075195 C28.75266312 68.02426738 31.47238846 75.25183091 34.32324219 82.4375 C35.10090761 84.41555216 35.87761001 86.39398051 36.65424728 88.37243652 C37.37568425 90.19259443 38.11621165 92.0051496 38.85733032 93.81738281 C41.3058084 100.05593469 42.81391578 104.43333619 41 111 C38.09773788 113.81690147 36.4715541 113.99172712 32.4375 114.0625 C29 113 29 113 25 107 C23.02 101.72 21.04 96.44 19 91 C3.16 91 -12.68 91 -29 91 C-31.31 97.27 -33.62 103.54 -36 110 C-41 114 -41 114 -44.625 113.9375 C-49.375 112.61805556 -49.375 112.61805556 -51 110 C-53.1574004 103.68162299 -50.32611548 98.42613874 -48.03125 92.53515625 C-47.60391571 91.40503616 -47.17658142 90.27491608 -46.73629761 89.11054993 C-45.5774934 86.05452365 -44.40623453 83.00365562 -43.22881317 79.95476532 C-42.01196496 76.7953827 -40.81080716 73.6300463 -39.60791016 70.46533203 C-37.67263531 65.38006093 -35.72767018 60.29860549 -33.77441406 55.22021484 C-31.65545673 49.71036042 -29.54809176 44.19625416 -27.44976807 38.67851257 C-25.76258596 34.24232324 -24.06954757 29.80838022 -22.375 25.375 C-22.0663501 24.56652618 -21.7577002 23.75805237 -21.43969727 22.92507935 C-20.57524227 20.6648485 -19.70642254 18.40635174 -18.8359375 16.1484375 C-18.58995819 15.50409256 -18.34397888 14.85974762 -18.09054565 14.19587708 C-14.56157416 5.08540328 -11.19902349 -2.870576 0 0 Z M-5 27 C-8.85780813 36.04638916 -12.42934349 45.18811521 -15.93139648 54.37670898 C-16.82598165 56.7228571 -17.72435313 59.06753238 -18.62304688 61.41210938 C-19.19293079 62.90356085 -19.76260059 64.39509416 -20.33203125 65.88671875 C-20.60070511 66.58762131 -20.86937897 67.28852386 -21.14619446 68.01066589 C-22.4429881 70.92556373 -22.4429881 70.92556373 -23 74 C-11.12 74 0.76 74 13 74 C11.05305256 67.51017519 9.06231822 61.23064779 6.64453125 54.9296875 C6.33803146 54.12258331 6.03153168 53.31547913 5.71574402 52.48391724 C4.75125436 49.94635696 3.78197424 47.41065951 2.8125 44.875 C2.15137261 43.13814265 1.4905626 41.40116444 0.83007812 39.6640625 C-0.77628984 35.44130532 -2.38695196 31.22020973 -4 27 C-4.33 27 -4.66 27 -5 27 Z " fill="#000000" transform="translate(170,11)"/>
<path d="M0 0 C8.27211276 5.85483503 13.53897108 12.62568227 15.74609375 22.64453125 C16.85220318 33.20900502 15.9945048 42.46502426 9.8984375 51.33203125 C4.5830048 57.81473683 -1.45047058 61.64976499 -9.25390625 64.64453125 C-9.91390625 64.64453125 -10.57390625 64.64453125 -11.25390625 64.64453125 C-11.2381958 65.70365723 -11.2381958 65.70365723 -11.22216797 66.78417969 C-11.18055835 69.98759391 -11.15456421 73.19095121 -11.12890625 76.39453125 C-11.11214844 77.50570312 -11.09539062 78.616875 -11.078125 79.76171875 C-11.06845703 81.36660156 -11.06845703 81.36660156 -11.05859375 83.00390625 C-11.0428833 84.48068848 -11.0428833 84.48068848 -11.02685547 85.98730469 C-11.2618034 88.73695338 -11.78927819 90.32755376 -13.25390625 92.64453125 C-15.93023651 94.72612145 -17.37144293 94.64040716 -20.81640625 94.51953125 C-24.25390625 93.64453125 -24.25390625 93.64453125 -25.93945312 92.08178711 C-27.76366173 88.69934385 -27.72162002 85.5252461 -27.72265625 81.7734375 C-27.73407654 80.63442238 -27.73407654 80.63442238 -27.74572754 79.47239685 C-27.7565119 77.86957073 -27.75938838 76.26667443 -27.75488281 74.66381836 C-27.75391063 72.21804028 -27.79553992 69.77540323 -27.83984375 67.33007812 C-27.84505139 65.76953777 -27.84773893 64.20898655 -27.84765625 62.6484375 C-27.86405151 61.92120987 -27.88044678 61.19398224 -27.89733887 60.44471741 C-27.8438642 56.49427618 -27.38384833 54.80545122 -24.87084961 51.69335938 C-22.13374787 49.55045819 -20.71499679 48.96323177 -17.31640625 48.58203125 C-11.03554658 47.54764635 -7.16656852 45.24127039 -3.37890625 40.08203125 C-0.51084243 35.08154336 -0.24026549 30.26042803 -1.25390625 24.64453125 C-3.48978851 18.96955891 -6.88020493 15.5650211 -12.25390625 12.64453125 C-17.62827334 10.85307555 -22.32185191 10.93276497 -27.44140625 13.26953125 C-32.7642471 16.3111546 -35.49181344 19.23763383 -37.33984375 25.07421875 C-38.01915319 27.57183013 -38.66148709 30.07987034 -39.26171875 32.59765625 C-40.25390625 35.64453125 -40.25390625 35.64453125 -43.25390625 37.64453125 C-46.71064548 38.18116214 -50.05035422 38.26571939 -53.19140625 36.64453125 C-56.02380855 31.31295045 -55.50050537 25.59398354 -54.046875 19.9453125 C-51.81882859 13.48068523 -48.45037315 8.11590975 -43.25390625 3.64453125 C-42.67898438 3.14050781 -42.1040625 2.63648438 -41.51171875 2.1171875 C-29.38306142 -7.84389854 -13.27554276 -7.98373196 0 0 Z " fill="#000000" transform="translate(359.25390625,48.35546875)"/>
<path d="M0 0 C1.2927887 -0.00045319 2.58557739 -0.00090637 3.9175415 -0.00137329 C26.4243619 0.02161649 48.55804413 1.30280037 70.88092041 4.11859131 C74.03673068 4.51204906 77.19641542 4.87191972 80.35546875 5.23828125 C82.40412732 5.48827284 84.45236255 5.74177796 86.5 6 C87.82233643 6.16592651 87.82233643 6.16592651 89.17138672 6.33520508 C91.10529904 6.60786364 93.02502622 6.97901567 94.9375 7.375 C95.2675 8.035 95.5975 8.695 95.9375 9.375 C77.32378268 13.23286056 58.72520472 16.75573795 39.875 19.25 C39.10080719 19.35291351 38.32661438 19.45582703 37.52896118 19.56185913 C13.23214789 22.76573139 -10.70461705 23.58115644 -35.0625 20.375 C-35.87251465 20.27316406 -36.6825293 20.17132813 -37.51708984 20.06640625 C-48.44713077 18.68009454 -59.28852502 16.85912237 -70.125 14.875 C-71.23045166 14.67350342 -72.33590332 14.47200684 -73.47485352 14.2644043 C-80.74637138 12.90280533 -87.90629832 11.24918579 -95.0625 9.375 C-88.09335362 4.72890241 -77.75347082 4.85705316 -69.5625 3.875 C-68.18771484 3.69904297 -68.18771484 3.69904297 -66.78515625 3.51953125 C-44.58557564 0.83479653 -22.34598502 -0.03085116 0 0 Z " fill="#EDF4F8" transform="translate(324.0625,231.625)"/>
<path d="M0 0 C2 1.5 2 1.5 3 4 C3.09946889 9.96813312 1.42482989 14.75676769 -0.75 20.25 C-16.09828214 59.20923452 -14.43906516 104.04178335 2.1171875 142.30859375 C3.12667124 145.38617912 3.25764244 147.77946949 3 151 C1.5 153.875 1.5 153.875 -1 156 C-3.81430113 156.7151093 -6.23217923 156.91900299 -9 156 C-21.37553001 143.20416898 -25.16660957 117.07196027 -27 100 C-27.10957031 99.10667969 -27.21914063 98.21335937 -27.33203125 97.29296875 C-30.39906022 68.0539592 -26.03726553 38.9473049 -16 11.4375 C-15.6800708 10.53813721 -15.3601416 9.63877441 -15.03051758 8.7121582 C-13.58161607 4.92747398 -12.6365251 2.52813847 -9.4765625 -0.09375 C-5.9352814 -1.38961312 -3.60074312 -1.00020642 0 0 Z " fill="#000000" transform="translate(73,165)"/>
<path d="M0 0 C-8.06202833 9.75929746 -17.04150369 18.20613844 -27 26 C-27.62293945 26.4940332 -28.24587891 26.98806641 -28.88769531 27.49707031 C-36.61896759 33.61874759 -44.45997064 39.52594118 -52.75 44.875 C-53.40508545 45.30997803 -54.0601709 45.74495605 -54.73510742 46.19311523 C-57.48868834 47.91800395 -59.40593825 49.01547484 -62.69921875 48.9296875 C-65.12947103 47.94768403 -66.96467136 46.8183189 -69.0625 45.25 C-79.01733634 38.32997139 -88.95238074 35.97699834 -100.8125 35.4375 C-101.69615234 35.39431641 -102.57980469 35.35113281 -103.49023438 35.30664062 C-105.65999623 35.20108464 -107.8299791 35.10008929 -110 35 C-110 34.67 -110 34.34 -110 34 C-109.319375 34.04382813 -108.63875 34.08765625 -107.9375 34.1328125 C-92.54439412 34.09187339 -77.40139411 20.92846795 -66.640625 10.7734375 C-64.88681908 9.28031227 -64.88681908 9.28031227 -65 8 C-64.36835938 7.87995605 -63.73671875 7.75991211 -63.0859375 7.63623047 C-60.05590658 7.05609306 -57.02771957 6.46708541 -54 5.875 C-52.88036865 5.65634277 -51.7607373 5.43768555 -50.60717773 5.21240234 C-41.68693147 3.42947757 -32.89419184 1.28994216 -24.14648438 -1.20751953 C-15.6394081 -3.49754373 -8.25980815 -3.26045059 0 0 Z " fill="#203769" transform="translate(470,250)"/>
<path d="M0 0 C2.17476401 1.54338091 2.81832637 2.63665273 4 5 C3.93407275 7.12765213 3.79530033 9.25314991 3.625 11.375 C3.5248769 12.74340486 3.42598171 14.11189995 3.328125 15.48046875 C3.27462891 16.21313965 3.22113281 16.94581055 3.16601562 17.70068359 C0.71562651 51.63857279 3.69778701 85.3251144 17.8984375 116.67578125 C19.2655362 120.8013167 19.34386709 123.66998942 19 128 C16.45767292 130.99097304 14.8425303 131.84202557 11 132.5625 C7.07661419 131.82686516 5.2562681 130.15834802 3 127 C1.20160961 123.26781189 -0.15387614 119.41473592 -1.5 115.5 C-1.88945801 114.38794189 -2.27891602 113.27588379 -2.68017578 112.13012695 C-5.04480572 105.22006518 -7.16033367 98.28720467 -8.875 91.1875 C-9.05353516 90.45144531 -9.23207031 89.71539062 -9.41601562 88.95703125 C-10.00922635 86.31352187 -10.51496211 83.66573503 -11 81 C-11.12454559 80.32202362 -11.24909119 79.64404724 -11.37741089 78.94552612 C-13.57208245 66.70512459 -14.45305756 54.79941206 -14.33618164 42.37084961 C-14.31235227 39.670761 -14.31568757 36.97165356 -14.32226562 34.27148438 C-14.28438841 6.77982551 -14.28438841 6.77982551 -10.05029297 1.62744141 C-6.60775893 -1.10510586 -4.29145712 -0.47682857 0 0 Z " fill="#000000" transform="translate(14,203)"/>
<path d="M0 0 C1.83549727 1.33535506 3.6460516 2.70636228 5.41796875 4.125 C11.33373292 8.79122982 15.35411103 9.82306027 22.78515625 8.9921875 C27.31239084 7.64195964 30.38127714 5.57138645 33.97265625 2.6171875 C43.66971576 -5.22016197 55.48749476 -8.14851045 67.78515625 -7.0078125 C75.01431776 -5.3835655 81.57161766 -3.05383763 87.78515625 0.9921875 C69.41640289 15.57386379 40.2228208 19.16820847 17.59765625 19.1796875 C16.34662109 19.19193359 15.09558594 19.20417969 13.80664062 19.21679688 C1.7106255 19.23568706 -9.26484092 17.26624193 -20.83984375 13.8671875 C-21.86658203 13.56804443 -22.89332031 13.26890137 -23.95117188 12.96069336 C-33.42639549 10.10298121 -42.32543572 6.31342751 -51.21484375 1.9921875 C-47.99121504 -0.75856544 -45.11463963 -2.69490679 -41.15234375 -4.1953125 C-40.31574219 -4.51886719 -39.47914063 -4.84242188 -38.6171875 -5.17578125 C-25.67802323 -9.65715034 -11.5054943 -7.18569146 0 0 Z " fill="#D5367A" transform="translate(305.21484375,306.0078125)"/>
<path d="M0 0 C2.5625 2 2.5625 2 4 5 C3.56294726 11.27766668 1.95326737 16.73864724 -0.09570312 22.6484375 C-3.38009889 32.55094005 -4.39152365 42.60827346 -4.375 53 C-4.37338867 54.07652832 -4.37177734 55.15305664 -4.37011719 56.26220703 C-4.16735032 69.73030046 -1.68060139 82.29830478 3.3046875 94.80078125 C4.41490732 98.31231923 4.09382615 100.49975631 3 104 C1.27733902 106.87110164 -0.10757052 107.03187275 -3.375 108 C-7 108 -7 108 -9.53125 106.01171875 C-12.47871915 102.41599293 -13.7607756 99.20575699 -15.125 94.8125 C-15.37652832 94.01642334 -15.62805664 93.22034668 -15.88720703 92.40014648 C-24.5869102 63.7835921 -23.86750644 31.09148749 -11.46875 3.60546875 C-8.90631534 -0.94012678 -4.83455038 -0.8200618 0 0 Z " fill="#000000" transform="translate(115,189)"/>
<path d="M0 0 C2.58455285 1.89533875 2.96275506 2.88826517 4 6 C4.10661505 8.72683859 4.1572517 11.42849408 4.16113281 14.15576172 C4.16609772 14.9869754 4.17106262 15.81818909 4.17617798 16.67459106 C4.19079145 19.42629828 4.19759999 22.17794785 4.203125 24.9296875 C4.2088768 26.84156292 4.21463453 28.75343833 4.22039795 30.66531372 C4.23090539 34.67515329 4.23674985 38.68497282 4.24023438 42.69482422 C4.24572077 47.8319177 4.269753 52.96874636 4.29820633 58.10575676 C4.31683257 62.05543796 4.32203829 66.00505535 4.32357025 69.95477676 C4.32659697 71.84859796 4.33462615 73.74241803 4.34775543 75.63619614 C4.36481681 78.2861521 4.3629356 80.93546056 4.35644531 83.58544922 C4.3656601 84.36692322 4.37487488 85.14839722 4.3843689 85.95355225 C4.34962355 90.48395545 3.83998471 93.42006619 1 97 C-2 99 -2 99 -5.5 98.8125 C-9.01579336 97.99633368 -9.88969375 97.72837871 -12 95 C-12.30673935 92.02404207 -12.43027277 89.255765 -12.41992188 86.27758789 C-12.42839142 85.38624649 -12.43686096 84.49490509 -12.44558716 83.57655334 C-12.46901886 80.62510985 -12.46997785 77.67418579 -12.46875 74.72265625 C-12.47584786 72.67386159 -12.4835463 70.62506893 -12.49182129 68.57627869 C-12.5052803 64.27971879 -12.50682848 59.98334268 -12.50097656 55.68676758 C-12.49507927 50.17716811 -12.52566695 44.66844946 -12.56609344 39.15902042 C-12.59192641 34.92711118 -12.59485185 30.69541526 -12.59120178 26.46343803 C-12.59289717 24.43201928 -12.60257976 22.40059111 -12.62034607 20.36924934 C-12.64244874 17.52949993 -12.63287839 14.69154919 -12.61523438 11.85180664 C-12.62849762 11.01063293 -12.64176086 10.16945923 -12.65542603 9.30279541 C-12.59591402 5.18660192 -12.53633417 3.59323065 -9.68811035 0.44285583 C-6.01970956 -1.52617549 -3.95522534 -1.0986737 0 0 Z " fill="#000000" transform="translate(151,326)"/>
<path d="M0 0 C3.375 1 3.375 1 5.3125 2.625 C7.65549942 7.86229282 6.45706652 12.25634499 4.546875 17.42578125 C3.75248596 19.39327968 2.94482258 21.35546271 2.125 23.3125 C1.72925781 24.31345703 1.33351563 25.31441406 0.92578125 26.34570312 C0.53261719 27.30025391 0.13945312 28.25480469 -0.265625 29.23828125 C-0.62172852 30.10493408 -0.97783203 30.97158691 -1.34472656 31.86450195 C-2.8530624 34.38040844 -3.86604732 35.07656231 -6.625 36 C-10.30560775 35.87085587 -12.6966765 35.77859391 -15.5625 33.375 C-17.75185323 28.48115161 -16.781901 23.96239052 -15.05078125 19.08203125 C-14.35907045 17.3204744 -13.65431221 15.56399268 -12.9375 13.8125 C-12.59783203 12.92369141 -12.25816406 12.03488281 -11.90820312 11.11914062 C-9.45862471 5.02495582 -7.31464014 0 0 0 Z " fill="#000000" transform="translate(26.625,150)"/>
<path d="M0 0 C1.39741535 0.16268011 2.79598946 0.31557759 4.1953125 0.4609375 C5.67190715 0.61949254 7.14846977 0.7783462 8.625 0.9375 C9.33720703 1.01170166 10.04941406 1.08590332 10.78320312 1.16235352 C12.53193725 1.3715801 14.26853183 1.67771943 16 2 C16.495 2.99 16.495 2.99 17 4 C-1.61256296 7.8576213 -20.22193235 11.38499058 -39.0625 13.9375 C-39.83669281 14.04468353 -40.61088562 14.15186707 -41.40853882 14.26229858 C-49.95613112 15.4358636 -58.35048514 16.34635377 -67 16 C-66.67 15.34 -66.34 14.68 -66 14 C-63.31159253 13.1670879 -60.66540007 12.45297321 -57.93359375 11.79296875 C-57.10730972 11.58569656 -56.2810257 11.37842438 -55.42970276 11.16487122 C-52.76749694 10.49799545 -50.10278149 9.84196585 -47.4375 9.1875 C-43.97636039 8.33276637 -40.51677974 7.47207474 -37.05859375 6.60546875 C-36.20925262 6.39361435 -35.3599115 6.18175995 -34.48483276 5.96348572 C-27.65895787 4.23314529 -20.98834198 2.15936784 -14.31860352 -0.09472656 C-9.23227536 -1.48221312 -5.106742 -0.90756423 0 0 Z " fill="#DEEFF8" transform="translate(403,237)"/>
<path d="M0 0 C9.42641715 0.17341635 18.32295792 3.25390283 26.1875 8.375 C23.04238067 10.95172427 19.86586053 12.54892493 16.125 14.125 C15.08214844 14.57359375 14.03929687 15.0221875 12.96484375 15.484375 C10.1875 16.375 10.1875 16.375 7.1875 15.375 C5.609375 13.703125 5.609375 13.703125 3.9375 11.625 C0.69066754 7.77587666 -2.60616869 5.12199187 -6.8125 2.375 C-4.31813777 -0.11936223 -3.45532701 0.05059044 0 0 Z " fill="#B43E28" transform="translate(366.8125,298.625)"/>
<path d="M0 0 C2.5 1.5625 2.5 1.5625 4 4 C4 7.81153499 3.80074051 10.05097421 1.3125 13 C-1.87167993 14.37694267 -3.70924801 13.980224 -7 13 C-8.875 11.875 -8.875 11.875 -10 10 C-10.36528977 6.5906288 -10.6140629 4.11976176 -8.9375 1.0625 C-5.8347167 -0.63902633 -3.46230815 -0.42519574 0 0 Z " fill="#000000" transform="translate(343,154)"/>
<path d="M0 0 C1.9375 1 1.9375 1 3 3 C3.51588106 5.78227986 3.61084998 8.22812414 3 11 C0.24290983 13.67599928 -1.30504933 14 -5.125 14 C-8 13 -8 13 -9.9375 10.75 C-11.17354048 7.55083641 -11.17724372 6.19537581 -10 3 C-7.55169116 -0.94449758 -4.2948925 -0.46016705 0 0 Z " fill="#000000" transform="translate(150,437)"/>
</svg>
